# xmcd
#
# Track frame offsets:
#	150
#	11617
#	27845
#	45555
#	71305
#	96975
#	110617
#	139750
#	157445
#	173582
#	176615
#	196470
#	225902
#
# Disc length: 3190 seconds
#
# Revision: 0
# Processed by: cddbd v1.5.2PL0 Copyright (c) Steve Scherf et al.
# Submitted via: audiograbber 1.81.02
#
DISCID=a70c740d
DTITLE=Grammatrain - lonely house
DYEAR=1995
DGENRE=Christian Rock
TTITLE0=She Don't Know
TTITLE1=Believe
TTITLE2=Execution
TTITLE3=Lonely House
TTITLE4=Psycho
TTITLE5=Sick Of Will
TTITLE6=Need
TTITLE7=Drown
TTITLE8=Undivine Election
TTITLE9=Jerky Love Song
TTITLE10=Humanity
TTITLE11=Picture Pains
TTITLE12=Apathy
EXTD=www.gerth.de, Bestell-Nr. 102052
EXTT0=
EXTT1=
EXTT2=
EXTT3=
EXTT4=
EXTT5=
EXTT6=
EXTT7=
EXTT8=
EXTT9=
EXTT10=
EXTT11=
EXTT12=
PLAYORDER=
